<svg version="1.1" id="Layer_1" xmlns="http://www.w3.org/2000/svg" xmlns:xlink="http://www.w3.org/1999/xlink" x="0px" y="0px"
	 width="100%" viewBox="0 0 1600 1600" enable-background="new 0 0 1600 1600" xml:space="preserve">
<path fill="#000000" opacity="1.000000" stroke="none" 
	d="
M852.000000,1601.000000 
	C568.000061,1601.000000 284.500092,1601.000000 1.000114,1601.000000 
	C1.000076,1067.666870 1.000076,534.333618 1.000038,1.000329 
	C534.333069,1.000219 1067.666138,1.000219 1600.999512,1.000110 
	C1600.999634,534.333008 1600.999634,1067.666016 1600.999756,1600.999512 
	C1351.500000,1601.000000 1102.000000,1601.000000 852.000000,1601.000000 
M167.223648,364.021362 
	C162.260696,369.069275 157.033310,373.886261 152.385071,379.209015 
	C139.206573,394.299896 129.814560,411.597504 125.162392,431.057251 
	C122.273857,443.139862 120.672035,455.564606 119.074280,467.911011 
	C117.637657,479.012360 116.561554,490.199921 116.137802,501.380249 
	C115.796577,510.382874 116.956711,519.432373 116.927841,528.459412 
	C116.890457,540.143799 116.195885,551.824646 116.037720,563.510376 
	C115.870216,575.886047 115.966003,588.265869 116.005386,600.643677 
	C116.329208,702.409729 116.703270,804.175598 116.981903,905.941833 
	C117.092323,946.270691 117.080811,986.600281 116.956871,1026.929077 
	C116.912582,1041.340576 117.722778,1055.598022 119.807549,1069.914429 
	C123.514465,1095.370239 131.389267,1119.223022 143.350555,1141.957153 
	C152.999496,1160.296143 165.934540,1175.433838 183.636703,1186.202271 
	C197.941406,1194.904053 212.578690,1203.057739 227.024658,1211.529053 
	C249.679535,1224.814453 272.328339,1238.110596 294.923431,1251.497314 
	C324.432037,1268.979858 353.846405,1286.621582 383.374054,1304.071655 
	C414.040253,1322.194702 444.832428,1340.104614 475.496704,1358.230713 
	C504.035370,1375.100464 532.478210,1392.132324 561.330444,1409.669189 
	C568.551575,1413.944702 575.773071,1418.219604 582.993835,1422.495728 
	C602.659363,1434.141602 622.522400,1445.469360 641.937988,1457.518066 
	C664.296143,1471.392700 687.888000,1482.676514 712.438721,1491.868164 
	C735.858582,1500.636353 760.428711,1501.516113 785.085144,1499.961670 
	C800.719482,1498.975952 816.383850,1497.885254 831.906006,1495.856567 
	C849.264526,1493.587891 866.039368,1488.197266 881.634949,1480.526001 
	C899.140808,1471.915283 915.772949,1461.503784 932.648621,1451.642090 
	C956.239990,1437.856201 979.664368,1423.785034 1003.234741,1409.962891 
	C1029.640259,1394.478149 1056.151245,1379.173706 1082.574463,1363.718994 
	C1105.522949,1350.296509 1128.411011,1336.770386 1151.329346,1323.296509 
	C1168.348511,1313.290649 1185.380737,1303.307129 1202.393677,1293.290894 
	C1215.482422,1285.585083 1228.522217,1277.795898 1241.634766,1270.130737 
	C1257.785278,1260.689453 1274.012451,1251.379150 1290.161987,1241.936157 
	C1305.083496,1233.211182 1319.917114,1224.335693 1334.849121,1215.629028 
	C1340.718018,1212.206909 1346.996338,1209.435181 1352.635986,1205.686768 
	C1358.237915,1201.963623 1363.122070,1197.179443 1368.581055,1193.218994 
	C1388.568359,1178.718506 1405.233154,1161.093994 1419.560669,1141.009399 
	C1435.928467,1118.064453 1444.803833,1092.762939 1444.919922,1064.598999 
	C1444.981201,1049.714844 1444.218750,1034.827148 1443.953125,1019.105957 
	C1444.199463,1014.276917 1444.625732,1009.449219 1444.661377,1004.618591 
	C1444.832153,981.434082 1444.848755,958.248413 1445.013428,935.063843 
	C1445.185303,910.871887 1445.528442,886.681152 1445.678223,862.489075 
	C1445.852539,834.315796 1445.872925,806.141602 1446.005981,777.967957 
	C1446.206299,735.543640 1446.508667,693.119690 1446.625366,650.695129 
	C1446.654297,640.131165 1446.137329,629.565735 1445.994995,618.275391 
	C1446.329956,615.267578 1446.978149,612.256897 1446.950928,609.252380 
	C1446.700806,581.650513 1446.183960,554.050354 1446.047241,526.448242 
	C1445.935791,503.931335 1446.133667,481.441772 1443.102661,459.029877 
	C1441.252197,445.345490 1438.749512,431.847931 1432.667358,419.449890 
	C1417.430786,388.391541 1395.606689,362.483276 1366.387939,344.149384 
	C1335.305420,324.645996 1302.892334,307.259705 1271.017700,289.023346 
	C1251.592529,277.909576 1232.061157,266.981567 1212.623779,255.888992 
	C1185.243652,240.263596 1157.925537,224.529129 1130.544556,208.905151 
	C1108.273926,196.197235 1085.925781,183.625305 1063.655762,170.916199 
	C1038.549438,156.588425 1013.504456,142.153229 988.409668,127.805130 
	C969.121033,116.776749 949.851318,105.713493 930.473938,94.842499 
	C907.429199,81.914040 885.556885,66.808510 861.031921,56.630199 
	C849.004333,51.638554 836.760437,47.072170 824.365723,43.086628 
	C810.291321,38.560974 795.698792,36.282623 780.883423,36.041264 
	C769.353882,35.853428 757.718384,35.079334 746.307739,36.269928 
	C726.952637,38.289459 710.109619,47.679379 693.490479,57.084759 
	C681.552856,63.840679 669.919556,71.132591 658.023499,77.964096 
	C642.436707,86.915123 626.702820,95.609764 611.072205,104.485115 
	C592.605408,114.970985 574.171692,125.515266 555.741821,136.066025 
	C542.129150,143.859039 528.574036,151.752747 514.941650,159.510956 
	C499.779541,168.139771 484.557007,176.662384 469.364502,185.237839 
	C458.577362,191.326630 447.781464,197.400040 437.016022,203.527008 
	C418.582794,214.017990 400.199341,224.596878 381.735687,235.033890 
	C373.710846,239.570129 365.440430,243.675629 357.458252,248.282913 
	C347.050110,254.290466 336.914154,260.771027 326.484314,266.739075 
	C314.150391,273.796631 301.594818,280.465607 289.194244,287.408203 
	C265.087708,300.904388 241.050034,314.523743 216.929276,327.994415 
	C202.625977,335.982361 189.051254,345.044678 176.303375,355.309906 
	C173.198669,357.809967 170.695648,361.057281 167.223648,364.021362 
z"/>
<path fill="#13945E" opacity="1.000000" stroke="none" 
	d="
M1443.828125,1019.940979 
	C1444.218750,1034.827148 1444.981201,1049.714844 1444.919922,1064.598999 
	C1444.803833,1092.762939 1435.928467,1118.064453 1419.560669,1141.009399 
	C1405.233154,1161.093994 1388.568359,1178.718506 1368.581055,1193.218994 
	C1363.122070,1197.179443 1358.237915,1201.963623 1352.635986,1205.686768 
	C1346.996338,1209.435181 1340.718018,1212.206909 1334.849121,1215.629028 
	C1319.917114,1224.335693 1305.083496,1233.211182 1290.161987,1241.936157 
	C1274.012451,1251.379150 1257.785278,1260.689453 1241.634766,1270.130737 
	C1228.522217,1277.795898 1215.482422,1285.585083 1202.393677,1293.290894 
	C1185.380737,1303.307129 1168.348511,1313.290649 1151.329346,1323.296509 
	C1128.411011,1336.770386 1105.522949,1350.296509 1082.574463,1363.718994 
	C1056.151245,1379.173706 1029.640259,1394.478149 1003.234741,1409.962891 
	C979.664368,1423.785034 956.239990,1437.856201 932.648621,1451.642090 
	C915.772949,1461.503784 899.140808,1471.915283 881.634949,1480.526001 
	C866.039368,1488.197266 849.264526,1493.587891 831.906006,1495.856567 
	C816.383850,1497.885254 800.719482,1498.975952 785.085144,1499.961670 
	C760.428711,1501.516113 735.858582,1500.636353 712.438721,1491.868164 
	C687.888000,1482.676514 664.296143,1471.392700 641.937988,1457.518066 
	C622.522400,1445.469360 602.659363,1434.141602 582.993835,1422.495728 
	C575.773071,1418.219604 568.551575,1413.944702 561.134460,1408.995728 
	C559.052979,1405.360474 557.361450,1402.252319 555.251953,1399.459717 
	C535.138367,1372.833862 515.087646,1346.158447 494.752197,1319.702393 
	C474.423248,1293.254883 453.767700,1267.058716 433.308228,1240.711182 
	C429.467163,1235.764771 425.875122,1230.624756 422.527191,1225.619385 
	C429.135925,1229.337891 435.121429,1233.598022 441.692871,1236.556763 
	C453.714386,1241.968994 466.337585,1245.419312 479.548340,1247.032959 
	C495.301514,1248.957031 510.435791,1247.053345 524.105469,1239.325562 
	C539.270630,1230.752319 553.212891,1220.446289 565.055420,1207.216797 
	C580.052246,1190.463379 591.358765,1171.631836 599.985046,1151.091919 
	C614.376526,1116.824341 624.670166,1081.183838 633.884216,1045.273438 
	C642.582336,1011.373535 650.728516,977.312012 658.149414,943.111511 
	C662.964539,920.920410 666.528564,898.422913 669.783447,875.936768 
	C674.445801,843.727173 678.867737,811.462280 682.356567,779.109375 
	C685.472351,750.214966 687.339294,721.180603 689.468445,692.186768 
	C691.427490,665.508545 693.258850,638.815735 694.670288,612.104126 
	C695.978638,587.343750 696.664734,562.550354 697.607117,537.770813 
	C697.815674,532.287109 699.686035,530.395569 705.254211,530.349304 
	C732.567078,530.122253 759.879822,529.841003 787.193237,529.726807 
	C812.350342,529.621582 837.508240,529.698547 862.665833,529.716003 
	C864.591980,529.717346 866.518066,529.883423 868.395203,529.970642 
	C868.593750,532.027832 868.736206,533.504333 868.716309,535.357117 
	C868.339417,537.550537 868.018799,539.362366 867.926392,541.185669 
	C866.494934,569.432800 864.534607,597.666992 863.805603,625.932800 
	C862.466736,677.842590 860.900391,729.777710 861.248596,781.690063 
	C861.524109,822.755737 864.100037,863.827271 866.440735,904.851379 
	C868.505798,941.044250 872.694702,977.067139 879.222534,1012.746704 
	C885.714661,1048.231201 892.246216,1083.723267 899.727600,1119.006958 
	C905.468323,1146.081421 914.055542,1172.310547 929.517212,1195.739624 
	C940.386047,1212.209106 953.807861,1226.047241 971.105164,1236.373657 
	C977.732178,1239.664185 983.958862,1243.466431 990.718445,1245.480225 
	C1008.068054,1250.648926 1025.339966,1247.987305 1042.240479,1242.853882 
	C1057.937378,1238.086304 1072.804321,1231.462280 1085.210449,1220.350220 
	C1099.529785,1207.524658 1103.323486,1190.666504 1103.146240,1172.396606 
	C1102.899902,1146.999146 1098.585327,1122.053467 1093.598877,1097.303467 
	C1089.896973,1078.929199 1084.858765,1060.777954 1079.537964,1042.787109 
	C1072.279663,1018.244690 1064.466187,993.856079 1056.389038,969.568420 
	C1042.710205,928.436951 1028.215698,887.572876 1014.876221,846.333618 
	C1005.475403,817.270691 996.904846,787.912109 988.918518,758.426880 
	C981.971069,732.776672 975.486816,706.933289 970.438721,680.857666 
	C966.403748,660.014648 964.259338,638.747009 962.317078,617.572266 
	C959.811157,590.253418 958.466064,562.829712 956.321472,535.474670 
	C955.905273,530.165771 957.613220,529.101746 962.582031,529.157166 
	C982.909241,529.383789 1003.241333,529.192993 1023.571533,529.122314 
	C1040.375610,529.063843 1057.179443,528.958252 1074.147949,529.175049 
	C1083.019531,541.029785 1091.741455,552.571838 1100.430908,564.138123 
	C1136.989502,612.800415 1173.520264,661.483459 1210.098022,710.131287 
	C1230.185547,736.847351 1250.385620,763.478577 1270.465210,790.200562 
	C1314.122314,848.300049 1357.690063,906.466858 1401.391357,964.533142 
	C1415.380249,983.120422 1429.673950,1001.478210 1443.828125,1019.940979 
z"/>
<path fill="#17CE82" opacity="1.000000" stroke="none" 
	d="
M167.915985,363.961029 
	C170.695648,361.057281 173.198669,357.809967 176.303375,355.309906 
	C189.051254,345.044678 202.625977,335.982361 216.929276,327.994415 
	C241.050034,314.523743 265.087708,300.904388 289.194244,287.408203 
	C301.594818,280.465607 314.150391,273.796631 326.484314,266.739075 
	C336.914154,260.771027 347.050110,254.290466 357.458252,248.282913 
	C365.440430,243.675629 373.710846,239.570129 381.735687,235.033890 
	C400.199341,224.596878 418.582794,214.017990 437.016022,203.527008 
	C447.781464,197.400040 458.577362,191.326630 469.364502,185.237839 
	C484.557007,176.662384 499.779541,168.139771 514.941650,159.510956 
	C528.574036,151.752747 542.129150,143.859039 555.741821,136.066025 
	C574.171692,125.515266 592.605408,114.970985 611.072205,104.485115 
	C626.702820,95.609764 642.436707,86.915123 658.023499,77.964096 
	C669.919556,71.132591 681.552856,63.840679 693.490479,57.084759 
	C710.109619,47.679379 726.952637,38.289459 746.307739,36.269928 
	C757.718384,35.079334 769.353882,35.853428 780.883423,36.041264 
	C795.698792,36.282623 810.291321,38.560974 824.365723,43.086628 
	C836.760437,47.072170 849.004333,51.638554 861.031921,56.630199 
	C885.556885,66.808510 907.429199,81.914040 930.473938,94.842499 
	C949.851318,105.713493 969.121033,116.776749 988.409668,127.805130 
	C1013.504456,142.153229 1038.549438,156.588425 1063.655762,170.916199 
	C1085.925781,183.625305 1108.273926,196.197235 1130.544556,208.905151 
	C1157.925537,224.529129 1185.243652,240.263596 1212.623779,255.888992 
	C1232.061157,266.981567 1251.592529,277.909576 1271.017700,289.023346 
	C1302.892334,307.259705 1335.305420,324.645996 1366.387939,344.149384 
	C1395.606689,362.483276 1417.430786,388.391541 1432.667358,419.449890 
	C1438.749512,431.847931 1441.252197,445.345490 1443.102661,459.029877 
	C1446.133667,481.441772 1445.935791,503.931335 1446.047241,526.448242 
	C1446.183960,554.050354 1446.700806,581.650513 1446.950928,609.252380 
	C1446.978149,612.256897 1446.329956,615.267578 1445.607178,618.561157 
	C1444.293213,617.937195 1443.218140,617.136108 1442.462402,616.101746 
	C1421.779541,587.795593 1401.110596,559.479187 1380.478394,531.136108 
	C1358.085327,500.374054 1335.702393,469.604492 1313.373901,438.795746 
	C1303.041138,424.538818 1292.669312,410.304413 1282.651978,395.826843 
	C1275.651489,385.709595 1269.289185,375.152374 1262.456055,364.915710 
	C1261.559814,363.573212 1259.558105,362.968597 1258.051514,361.605225 
	C1257.117798,349.665955 1249.815430,339.897278 1239.672363,336.758057 
	C1230.454956,334.524292 1221.660400,335.694031 1213.368774,338.782410 
	C1199.041748,344.118744 1185.029175,350.292419 1170.811646,355.931030 
	C1147.491943,365.179535 1124.171387,374.779175 1099.201050,378.392120 
	C1085.938477,380.311035 1072.326172,380.228088 1058.867432,380.307831 
	C978.402954,380.784607 897.936829,380.977234 817.472046,381.400818 
	C754.009338,381.734894 690.547058,382.203979 627.085632,382.738525 
	C604.111328,382.932037 581.116272,382.972961 558.174500,384.032623 
	C536.999329,385.010681 515.798401,386.213226 495.232788,392.593964 
	C478.072357,397.918213 460.827789,403.020752 445.590332,412.743500 
	C432.856262,420.868805 420.453186,429.583221 408.405151,438.699646 
	C378.104218,461.627533 353.916687,490.321381 332.255157,521.253723 
	C324.259399,532.671509 316.735596,544.419800 308.711304,555.839661 
	C304.978302,550.993591 301.525391,546.329102 298.083557,541.656372 
	C277.094055,513.160339 256.031372,484.717834 235.143936,456.147186 
	C219.255402,434.414307 203.627991,412.490692 187.808441,390.707092 
	C181.279999,381.717407 174.552795,372.872040 167.915985,363.961029 
z"/>
<path fill="#00AF64" opacity="1.000000" stroke="none" 
	d="
M167.569824,363.991211 
	C174.552795,372.872040 181.279999,381.717407 187.808441,390.707092 
	C203.627991,412.490692 219.255402,434.414307 235.143936,456.147186 
	C256.031372,484.717834 277.094055,513.160339 298.083557,541.656372 
	C301.525391,546.329102 304.978302,550.993591 308.651031,556.181519 
	C287.888031,591.545776 274.188019,629.148193 266.423401,669.432007 
	C265.443481,680.625183 268.822632,689.620972 277.290161,696.896362 
	C277.792297,697.339600 278.121887,697.546509 278.334198,697.743408 
	C278.216949,697.733337 278.249115,697.500244 278.411530,697.782104 
	C279.159393,698.272095 279.744873,698.480347 280.254578,698.714478 
	C280.178864,698.740479 280.300537,698.636414 280.285278,698.998901 
	C280.806732,700.362793 281.202240,701.477539 281.901245,702.348816 
	C293.538940,716.857178 305.481934,731.129395 316.822296,745.865662 
	C336.182617,771.023376 355.092987,796.526733 374.332001,821.778503 
	C404.544647,861.433533 434.850494,901.017578 465.183411,940.580688 
	C468.789337,945.283936 472.811920,949.667725 476.552124,954.569214 
	C475.001221,958.290222 473.481445,961.617554 472.086761,964.996582 
	C458.347656,998.283081 443.999054,1031.336182 431.095856,1064.944092 
	C419.897186,1094.112427 412.046265,1124.364746 406.077332,1155.088745 
	C403.698608,1167.332764 402.604370,1179.545776 403.462952,1192.349854 
	C404.786224,1200.843018 407.072723,1208.635986 412.459595,1215.079346 
	C415.512421,1218.730957 418.920258,1222.085693 422.168213,1225.574097 
	C425.875122,1230.624756 429.467163,1235.764771 433.308228,1240.711182 
	C453.767700,1267.058716 474.423248,1293.254883 494.752197,1319.702393 
	C515.087646,1346.158447 535.138367,1372.833862 555.251953,1399.459717 
	C557.361450,1402.252319 559.052979,1405.360474 560.950867,1408.707520 
	C532.478210,1392.132324 504.035370,1375.100464 475.496704,1358.230713 
	C444.832428,1340.104614 414.040253,1322.194702 383.374054,1304.071655 
	C353.846405,1286.621582 324.432037,1268.979858 294.923431,1251.497314 
	C272.328339,1238.110596 249.679535,1224.814453 227.024658,1211.529053 
	C212.578690,1203.057739 197.941406,1194.904053 183.636703,1186.202271 
	C165.934540,1175.433838 152.999496,1160.296143 143.350555,1141.957153 
	C131.389267,1119.223022 123.514465,1095.370239 119.807549,1069.914429 
	C117.722778,1055.598022 116.912582,1041.340576 116.956871,1026.929077 
	C117.080811,986.600281 117.092323,946.270691 116.981903,905.941833 
	C116.703270,804.175598 116.329208,702.409729 116.005386,600.643677 
	C115.966003,588.265869 115.870216,575.886047 116.037720,563.510376 
	C116.195885,551.824646 116.890457,540.143799 116.927841,528.459412 
	C116.956711,519.432373 115.796577,510.382874 116.137802,501.380249 
	C116.561554,490.199921 117.637657,479.012360 119.074280,467.911011 
	C120.672035,455.564606 122.273857,443.139862 125.162392,431.057251 
	C129.814560,411.597504 139.206573,394.299896 152.385071,379.209015 
	C157.033310,373.886261 162.260696,369.069275 167.569824,363.991211 
z"/>
<path fill="#00AF64" opacity="1.000000" stroke="none" 
	d="
M1258.068481,362.022247 
	C1259.558105,362.968597 1261.559814,363.573212 1262.456055,364.915710 
	C1269.289185,375.152374 1275.651489,385.709595 1282.651978,395.826843 
	C1292.669312,410.304413 1303.041138,424.538818 1313.373901,438.795746 
	C1335.702393,469.604492 1358.085327,500.374054 1380.478394,531.136108 
	C1401.110596,559.479187 1421.779541,587.795593 1442.462402,616.101746 
	C1443.218140,617.136108 1444.293213,617.937195 1445.545410,618.923950 
	C1446.137329,629.565735 1446.654297,640.131165 1446.625366,650.695129 
	C1446.508667,693.119690 1446.206299,735.543640 1446.005981,777.967957 
	C1445.872925,806.141602 1445.852539,834.315796 1445.678223,862.489075 
	C1445.528442,886.681152 1445.185303,910.871887 1445.013428,935.063843 
	C1444.848755,958.248413 1444.832153,981.434082 1444.661377,1004.618591 
	C1444.625732,1009.449219 1444.199463,1014.276917 1443.890625,1019.523438 
	C1429.673950,1001.478210 1415.380249,983.120422 1401.391357,964.533142 
	C1357.690063,906.466858 1314.122314,848.300049 1270.465210,790.200562 
	C1250.385620,763.478577 1230.185547,736.847351 1210.098022,710.131287 
	C1173.520264,661.483459 1136.989502,612.800415 1100.430908,564.138123 
	C1091.741455,552.571838 1083.019531,541.029785 1074.610718,529.084961 
	C1100.526245,528.551941 1126.011475,527.899475 1151.331177,522.671387 
	C1172.611450,518.277344 1189.356812,507.859222 1202.925659,491.234070 
	C1214.258057,477.349060 1223.974976,462.457825 1231.140259,446.115448 
	C1243.007568,419.049042 1255.030884,391.950562 1258.068481,362.022247 
z"/>
<path fill="#D8FBFB" opacity="1.000000" stroke="none" 
	d="
M1258.051514,361.605225 
	C1255.030884,391.950562 1243.007568,419.049042 1231.140259,446.115448 
	C1223.974976,462.457825 1214.258057,477.349060 1202.925659,491.234070 
	C1189.356812,507.859222 1172.611450,518.277344 1151.331177,522.671387 
	C1126.011475,527.899475 1100.526245,528.551941 1074.446167,528.783447 
	C1057.179443,528.958252 1040.375610,529.063843 1023.571533,529.122314 
	C1003.241333,529.192993 982.909241,529.383789 962.582031,529.157166 
	C957.613220,529.101746 955.905273,530.165771 956.321472,535.474670 
	C958.466064,562.829712 959.811157,590.253418 962.317078,617.572266 
	C964.259338,638.747009 966.403748,660.014648 970.438721,680.857666 
	C975.486816,706.933289 981.971069,732.776672 988.918518,758.426880 
	C996.904846,787.912109 1005.475403,817.270691 1014.876221,846.333618 
	C1028.215698,887.572876 1042.710205,928.436951 1056.389038,969.568420 
	C1064.466187,993.856079 1072.279663,1018.244690 1079.537964,1042.787109 
	C1084.858765,1060.777954 1089.896973,1078.929199 1093.598877,1097.303467 
	C1098.585327,1122.053467 1102.899902,1146.999146 1103.146240,1172.396606 
	C1103.323486,1190.666504 1099.529785,1207.524658 1085.210449,1220.350220 
	C1072.804321,1231.462280 1057.937378,1238.086304 1042.240479,1242.853882 
	C1025.339966,1247.987305 1008.068054,1250.648926 990.718445,1245.480225 
	C983.958862,1243.466431 977.732178,1239.664185 971.428650,1236.137207 
	C972.395752,1235.402954 973.190552,1235.071167 973.999207,1235.033203 
	C995.014832,1234.043823 1008.871033,1216.418213 1009.729065,1196.859375 
	C1010.544128,1178.279297 1009.355896,1159.606812 1008.906189,1140.978394 
	C1008.786194,1136.006958 1008.214355,1131.041260 1007.729553,1126.084595 
	C1006.178833,1110.229370 1004.632202,1094.373291 1002.967163,1078.529785 
	C1001.596558,1065.487549 1000.813477,1052.325317 998.466858,1039.453735 
	C987.759277,980.722229 976.451477,922.100281 965.671875,863.381653 
	C962.252930,844.758240 959.986633,825.926025 956.846863,807.247498 
	C954.482483,793.181641 952.723999,778.862549 948.659851,765.264648 
	C939.540405,734.752075 931.068298,704.190735 928.938110,672.258423 
	C927.446289,649.894836 925.564270,627.520813 925.197815,605.129456 
	C924.858215,584.377930 926.242004,563.595215 926.986572,542.830566 
	C927.257568,535.274048 926.263977,533.926758 918.774597,534.038086 
	C902.141602,534.285217 885.510498,534.658813 868.878662,534.980835 
	C868.736206,533.504333 868.593750,532.027832 868.395203,529.970642 
	C866.518066,529.883423 864.591980,529.717346 862.665833,529.716003 
	C837.508240,529.698547 812.350342,529.621582 787.193237,529.726807 
	C759.879822,529.841003 732.567078,530.122253 705.254211,530.349304 
	C699.686035,530.395569 697.815674,532.287109 697.607117,537.770813 
	C696.664734,562.550354 695.978638,587.343750 694.670288,612.104126 
	C693.258850,638.815735 691.427490,665.508545 689.468445,692.186768 
	C687.339294,721.180603 685.472351,750.214966 682.356567,779.109375 
	C678.867737,811.462280 674.445801,843.727173 669.783447,875.936768 
	C666.528564,898.422913 662.964539,920.920410 658.149414,943.111511 
	C650.728516,977.312012 642.582336,1011.373535 633.884216,1045.273438 
	C624.670166,1081.183838 614.376526,1116.824341 599.985046,1151.091919 
	C591.358765,1171.631836 580.052246,1190.463379 565.055420,1207.216797 
	C553.212891,1220.446289 539.270630,1230.752319 524.105469,1239.325562 
	C510.435791,1247.053345 495.301514,1248.957031 479.548340,1247.032959 
	C466.337585,1245.419312 453.714386,1241.968994 441.692871,1236.556763 
	C435.121429,1233.598022 429.135925,1229.337891 422.527222,1225.619385 
	C418.920258,1222.085693 415.512421,1218.730957 412.459595,1215.079346 
	C407.072723,1208.635986 404.786224,1200.843018 403.740295,1192.478516 
	C412.586334,1203.286743 421.766327,1213.267578 435.630920,1217.975830 
	C444.999359,1221.157227 453.235535,1220.177002 461.094635,1214.429932 
	C473.165955,1205.602539 481.505920,1193.463623 489.680237,1181.348999 
	C511.231201,1149.409912 529.838440,1115.765015 546.025085,1080.813965 
	C555.327026,1060.728516 564.497437,1040.563477 573.017151,1020.138123 
	C590.431641,978.387878 603.731995,935.214111 613.948120,891.227112 
	C626.483337,837.254944 637.846924,783.004150 649.166870,728.759033 
	C654.805237,701.739746 659.555603,674.520569 664.068237,647.285950 
	C667.242737,628.127136 669.554810,608.814880 671.813782,589.519836 
	C672.757690,581.456970 672.957031,573.253052 672.788330,565.127930 
	C672.592163,555.677246 671.489685,546.249084 671.029602,536.799011 
	C670.684570,529.710999 670.214294,528.841125 663.241638,529.058228 
	C645.796997,529.601257 628.359131,530.362793 610.541992,530.863403 
	C609.701050,530.534973 609.237610,530.246460 608.772400,530.243652 
	C581.326477,530.078552 553.896484,530.029480 526.536072,532.938232 
	C507.804565,534.929565 489.705750,539.269653 472.137787,545.954712 
	C457.029358,551.703918 444.012024,561.019470 431.845642,571.264404 
	C414.456573,585.907227 397.269470,600.876953 380.982574,616.721191 
	C356.295380,640.737427 332.591644,665.761414 308.176239,690.062012 
	C300.637512,697.565308 291.646240,702.477051 280.300537,698.636414 
	C280.300537,698.636414 280.178864,698.740479 280.068237,698.468994 
	C279.388123,697.965088 278.818604,697.732666 278.249115,697.500244 
	C278.249115,697.500244 278.216949,697.733337 278.197052,697.471436 
	C277.823975,697.026306 277.470795,696.843140 277.117584,696.659973 
	C268.822632,689.620972 265.443481,680.625183 266.759155,669.398315 
	C268.864716,667.547607 270.911163,666.402405 272.422028,664.763489 
	C275.457642,661.470703 278.113922,657.831604 281.080109,654.470764 
	C294.275299,639.519714 307.287567,624.397522 320.813629,609.750610 
	C338.280273,590.836548 355.804352,571.947083 374.009186,553.752991 
	C386.687439,541.082153 400.418457,529.446045 413.916382,517.618347 
	C436.617767,497.726074 462.152588,482.719757 491.218597,474.117737 
	C501.589355,471.048492 512.027954,468.248566 523.079773,469.231628 
	C541.924866,470.907837 560.764709,473.384705 579.643921,473.789307 
	C623.760864,474.734833 667.900391,474.594818 712.029663,475.009674 
	C730.165649,475.180176 748.298218,475.689758 766.433533,475.969177 
	C790.899597,476.346161 815.369934,477.076538 839.832825,476.894684 
	C888.101990,476.535980 936.369324,475.769623 984.633118,474.925812 
	C1001.245178,474.635345 1017.904114,474.267548 1034.434937,472.762817 
	C1056.579834,470.747009 1078.681274,468.004364 1100.686768,464.789764 
	C1117.057617,462.398315 1132.909790,457.543274 1147.506958,449.569946 
	C1164.116211,440.497559 1178.558594,428.730011 1191.236084,414.490997 
	C1211.850586,391.337433 1226.395630,364.530182 1239.986328,337.044098 
	C1249.815430,339.897278 1257.117798,349.665955 1258.051514,361.605225 
z"/>
<path fill="#FDFFFF" opacity="1.000000" stroke="none" 
	d="
M868.716309,535.357117 
	C885.510498,534.658813 902.141602,534.285217 918.774597,534.038086 
	C926.263977,533.926758 927.257568,535.274048 926.986572,542.830566 
	C926.242004,563.595215 924.858215,584.377930 925.197815,605.129456 
	C925.564270,627.520813 927.446289,649.894836 928.938110,672.258423 
	C931.068298,704.190735 939.540405,734.752075 948.659851,765.264648 
	C952.723999,778.862549 954.482483,793.181641 956.846863,807.247498 
	C959.986633,825.926025 962.252930,844.758240 965.671875,863.381653 
	C976.451477,922.100281 987.759277,980.722229 998.466858,1039.453735 
	C1000.813477,1052.325317 1001.596558,1065.487549 1002.967163,1078.529785 
	C1004.632202,1094.373291 1006.178833,1110.229370 1007.729553,1126.084595 
	C1008.214355,1131.041260 1008.786194,1136.006958 1008.906189,1140.978394 
	C1009.355896,1159.606812 1010.544128,1178.279297 1009.729065,1196.859375 
	C1008.871033,1216.418213 995.014832,1234.043823 973.999207,1235.033203 
	C973.190552,1235.071167 972.395752,1235.402954 971.271057,1235.834229 
	C953.807861,1226.047241 940.386047,1212.209106 929.517212,1195.739624 
	C914.055542,1172.310547 905.468323,1146.081421 899.727600,1119.006958 
	C892.246216,1083.723267 885.714661,1048.231201 879.222534,1012.746704 
	C872.694702,977.067139 868.505798,941.044250 866.440735,904.851379 
	C864.100037,863.827271 861.524109,822.755737 861.248596,781.690063 
	C860.900391,729.777710 862.466736,677.842590 863.805603,625.932800 
	C864.534607,597.666992 866.494934,569.432800 867.926392,541.185669 
	C868.018799,539.362366 868.339417,537.550537 868.716309,535.357117 
z"/>
<path fill="#FEFFFF" opacity="1.000000" stroke="none" 
	d="
M1239.672363,336.758057 
	C1226.395630,364.530182 1211.850586,391.337433 1191.236084,414.490997 
	C1178.558594,428.730011 1164.116211,440.497559 1147.506958,449.569946 
	C1132.909790,457.543274 1117.057617,462.398315 1100.686768,464.789764 
	C1078.681274,468.004364 1056.579834,470.747009 1034.434937,472.762817 
	C1017.904114,474.267548 1001.245178,474.635345 984.633118,474.925812 
	C936.369324,475.769623 888.101990,476.535980 839.832825,476.894684 
	C815.369934,477.076538 790.899597,476.346161 766.433533,475.969177 
	C748.298218,475.689758 730.165649,475.180176 712.029663,475.009674 
	C667.900391,474.594818 623.760864,474.734833 579.643921,473.789307 
	C560.764709,473.384705 541.924866,470.907837 523.079773,469.231628 
	C512.027954,468.248566 501.589355,471.048492 491.218597,474.117737 
	C462.152588,482.719757 436.617767,497.726074 413.916382,517.618347 
	C400.418457,529.446045 386.687439,541.082153 374.009186,553.752991 
	C355.804352,571.947083 338.280273,590.836548 320.813629,609.750610 
	C307.287567,624.397522 294.275299,639.519714 281.080109,654.470764 
	C278.113922,657.831604 275.457642,661.470703 272.422028,664.763489 
	C270.911163,666.402405 268.864716,667.547607 266.724792,668.949829 
	C274.188019,629.148193 287.888031,591.545776 308.936249,556.359253 
	C316.735596,544.419800 324.259399,532.671509 332.255157,521.253723 
	C353.916687,490.321381 378.104218,461.627533 408.405151,438.699646 
	C420.453186,429.583221 432.856262,420.868805 445.590332,412.743500 
	C460.827789,403.020752 478.072357,397.918213 495.232788,392.593964 
	C515.798401,386.213226 536.999329,385.010681 558.174500,384.032623 
	C581.116272,382.972961 604.111328,382.932037 627.085632,382.738525 
	C690.547058,382.203979 754.009338,381.734894 817.472046,381.400818 
	C897.936829,380.977234 978.402954,380.784607 1058.867432,380.307831 
	C1072.326172,380.228088 1085.938477,380.311035 1099.201050,378.392120 
	C1124.171387,374.779175 1147.491943,365.179535 1170.811646,355.931030 
	C1185.029175,350.292419 1199.041748,344.118744 1213.368774,338.782410 
	C1221.660400,335.694031 1230.454956,334.524292 1239.672363,336.758057 
z"/>
<path fill="#13945E" opacity="1.000000" stroke="none" 
	d="
M280.285278,698.998901 
	C291.646240,702.477051 300.637512,697.565308 308.176239,690.062012 
	C332.591644,665.761414 356.295380,640.737427 380.982574,616.721191 
	C397.269470,600.876953 414.456573,585.907227 431.845642,571.264404 
	C444.012024,561.019470 457.029358,551.703918 472.137787,545.954712 
	C489.705750,539.269653 507.804565,534.929565 526.536072,532.938232 
	C553.896484,530.029480 581.326477,530.078552 608.772400,530.243652 
	C609.237610,530.246460 609.701050,530.534973 610.530396,531.299500 
	C610.855896,533.406311 610.991882,534.932739 610.750061,536.396851 
	C607.494019,556.109924 604.415344,575.856323 600.827942,595.509583 
	C596.913574,616.952942 592.937195,638.401184 588.233215,659.680481 
	C580.592041,694.246521 568.938904,727.645996 556.149048,760.553650 
	C535.189880,814.480286 513.362976,868.071289 491.663239,921.707214 
	C487.193420,932.755432 481.675964,943.379761 476.641388,954.199524 
	C472.811920,949.667725 468.789337,945.283936 465.183411,940.580688 
	C434.850494,901.017578 404.544647,861.433533 374.332001,821.778503 
	C355.092987,796.526733 336.182617,771.023376 316.822296,745.865662 
	C305.481934,731.129395 293.538940,716.857178 281.901245,702.348816 
	C281.202240,701.477539 280.806732,700.362793 280.285278,698.998901 
z"/>
<path fill="#FEFFFF" opacity="1.000000" stroke="none" 
	d="
M476.552124,954.569214 
	C481.675964,943.379761 487.193420,932.755432 491.663239,921.707214 
	C513.362976,868.071289 535.189880,814.480286 556.149048,760.553650 
	C568.938904,727.645996 580.592041,694.246521 588.233215,659.680481 
	C592.937195,638.401184 596.913574,616.952942 600.827942,595.509583 
	C604.415344,575.856323 607.494019,556.109924 610.750061,536.396851 
	C610.991882,534.932739 610.855896,533.406311 610.907043,531.472717 
	C628.359131,530.362793 645.796997,529.601257 663.241638,529.058228 
	C670.214294,528.841125 670.684570,529.710999 671.029602,536.799011 
	C671.489685,546.249084 672.592163,555.677246 672.788330,565.127930 
	C672.957031,573.253052 672.757690,581.456970 671.813782,589.519836 
	C669.554810,608.814880 667.242737,628.127136 664.068237,647.285950 
	C659.555603,674.520569 654.805237,701.739746 649.166870,728.759033 
	C637.846924,783.004150 626.483337,837.254944 613.948120,891.227112 
	C603.731995,935.214111 590.431641,978.387878 573.017151,1020.138123 
	C564.497437,1040.563477 555.327026,1060.728516 546.025085,1080.813965 
	C529.838440,1115.765015 511.231201,1149.409912 489.680237,1181.348999 
	C481.505920,1193.463623 473.165955,1205.602539 461.094635,1214.429932 
	C453.235535,1220.177002 444.999359,1221.157227 435.630920,1217.975830 
	C421.766327,1213.267578 412.586334,1203.286743 403.842957,1192.087891 
	C402.604370,1179.545776 403.698608,1167.332764 406.077332,1155.088745 
	C412.046265,1124.364746 419.897186,1094.112427 431.095856,1064.944092 
	C443.999054,1031.336182 458.347656,998.283081 472.086761,964.996582 
	C473.481445,961.617554 475.001221,958.290222 476.552124,954.569214 
z"/>
<path fill="#13945E" opacity="1.000000" stroke="none" 
	d="
M278.411530,697.782104 
	C278.818604,697.732666 279.388123,697.965088 280.143982,698.442993 
	C279.744873,698.480347 279.159393,698.272095 278.411530,697.782104 
z"/>
<path fill="#13945E" opacity="1.000000" stroke="none" 
	d="
M277.290161,696.896362 
	C277.470795,696.843140 277.823975,697.026306 278.314301,697.481506 
	C278.121887,697.546509 277.792297,697.339600 277.290161,696.896362 
z"/>
</svg>